<!DOCTYPE svg PUBLIC "-//W3C//DTD SVG 1.1//EN" "http://www.w3.org/Graphics/SVG/1.1/DTD/svg11.dtd">
<svg fill="#000000" width="800px" height="800px" viewBox="0 0 24 24" id="play-square" data-name="Flat Line" xmlns="http://www.w3.org/2000/svg" class="icon flat-line">

<g id="SVGRepo_bgCarrier" stroke-width="0"/>

<g id="SVGRepo_tracerCarrier" stroke-linecap="round" stroke-linejoin="round"/>

<g id="SVGRepo_iconCarrier">

<path id="secondary" d="M20,3H4A1,1,0,0,0,3,4V20a1,1,0,0,0,1,1H20a1,1,0,0,0,1-1V4A1,1,0,0,0,20,3ZM9,16V8l6,4Z" style="fill: #745758; stroke-width: 2;"/>

<path id="primary" d="M15,12,9,16V8Zm6,8V4a1,1,0,0,0-1-1H4A1,1,0,0,0,3,4V20a1,1,0,0,0,1,1H20A1,1,0,0,0,21,20Z" style="fill: none; stroke: #000000; stroke-linecap: round; stroke-linejoin: round; stroke-width: 2;"/>

</g>

</svg>